<svg width="16" height="25" viewBox="0 0 16 25" fill="none" xmlns="http://www.w3.org/2000/svg">
<path d="M8 2C9.65685 2 11 3.34315 11 5V11H5V5C5 3.34315 6.34315 2 8 2ZM12.5 11V5C12.5 2.51472 10.4853 0.5 8 0.5C5.51472 0.5 3.5 2.51472 3.5 5V11C1.84315 11 0.5 12.3431 0.5 14V21.5C0.5 23.1569 1.84315 24.5 3.5 24.5H12.5C14.1569 24.5 15.5 23.1569 15.5 21.5V14C15.5 12.3431 14.1569 11 12.5 11ZM3.5 12.5H12.5C13.3284 12.5 14 13.1716 14 14V21.5C14 22.3284 13.3284 23 12.5 23H3.5C2.67157 23 2 22.3284 2 21.5V14C2 13.1716 2.67157 12.5 3.5 12.5Z" fill="#8E8C80"/>
</svg>
